<svg version="1.1" id="Layer_1" xmlns="http://www.w3.org/2000/svg" xmlns:xlink="http://www.w3.org/1999/xlink" x="0px" y="0px"
	 width="100%" viewBox="0 0 414 415" enable-background="new 0 0 414 415" xml:space="preserve">
<path fill="#9EDCF4" opacity="1.000000" stroke="none" 
	d="
M0.999997,206.000000 
	C1.000000,138.311905 1.000000,70.623802 1.204482,2.341893 
	C1.666371,1.546437 1.863382,1.297078 2.000000,1.000000 
	C139.021439,1.000000 276.042877,1.000000 413.658783,1.203651 
	C414.458832,1.659473 414.707733,1.857039 415.000000,2.000000 
	C415.000000,139.937881 415.000000,277.875763 415.000000,415.906830 
	C277.124268,415.906830 139.248474,415.906830 1.000000,415.906830 
	C1.000000,369.645905 1.000000,323.290802 1.368845,276.419891 
	C5.001710,274.934021 8.242519,273.873993 11.537534,273.024109 
	C13.913948,272.411133 16.347351,271.854156 18.783575,271.689148 
	C20.802143,271.552399 22.942902,271.734741 24.889566,272.277588 
	C33.429558,274.659119 41.679619,275.161621 50.084648,271.182678 
	C53.472889,269.578644 57.692158,269.597992 61.565739,269.179443 
	C69.071259,268.368530 76.648399,268.095306 84.102966,266.978943 
	C89.769470,266.130341 95.255669,264.143341 100.889084,262.990082 
	C106.811653,261.777679 109.595039,258.923950 109.934311,252.616425 
	C108.151436,246.031006 103.051132,244.822754 97.618584,243.989120 
	C95.728958,243.699158 93.298622,243.599319 92.144402,242.412109 
	C86.319557,236.420731 78.842491,233.845428 71.274452,231.200027 
	C69.515831,230.585297 68.155098,228.731812 66.707855,227.347351 
	C63.550194,224.326767 60.966461,220.170715 57.235786,218.387054 
	C46.873623,213.432800 35.951321,212.277817 24.953371,216.972549 
	C23.966982,217.393600 22.139065,217.872482 21.789408,217.441757 
	C18.324915,213.173996 13.681618,212.736115 8.716419,212.748444 
	C7.837814,212.750626 6.917482,211.488159 6.083635,210.735245 
	C4.365057,209.183441 2.691862,207.581390 0.999997,206.000000 
M234.415054,216.438446 
	C232.069748,217.013062 229.749054,217.921906 227.374329,218.096664 
	C221.400055,218.536301 215.799713,219.628738 211.847504,224.682358 
	C209.118179,228.172241 206.632782,231.849976 202.020004,233.272675 
	C201.128204,233.547729 200.606888,235.024033 199.313934,236.352798 
	C197.271301,240.831253 198.534180,245.176086 203.240494,246.727951 
	C207.379089,248.092606 211.948013,248.109116 216.290115,248.918335 
	C218.354111,249.302994 220.825211,249.591858 222.269287,250.873505 
	C231.324158,258.909973 241.881714,258.066376 252.371536,255.813583 
	C256.384155,254.951828 259.721985,254.392731 263.807007,255.709152 
	C274.753082,259.236633 285.689728,260.609283 296.464600,254.220795 
	C300.468170,251.847061 305.044281,252.244614 309.632965,254.759262 
	C313.557343,256.909851 318.562408,259.298584 322.582062,258.611847 
	C331.339539,257.115692 339.736908,257.512177 348.336395,258.941437 
	C354.604645,259.983215 360.493927,255.635712 365.896820,255.652084 
	C374.536133,255.678268 380.844727,251.009689 388.274017,248.887329 
	C394.661224,247.062668 396.558838,238.968857 391.990906,234.208786 
	C389.529999,229.675308 385.281921,228.226456 380.598999,227.052612 
	C378.489594,226.523880 376.019440,224.960236 374.960266,223.140274 
	C370.135956,214.850662 360.113892,212.719528 352.238831,218.245590 
	C349.879211,219.901382 346.562164,221.020050 343.708252,220.970642 
	C337.902069,220.870071 331.948334,220.919205 326.739075,217.164200 
	C324.864838,215.813171 321.870483,216.130585 319.661377,215.099396 
	C317.137848,213.921463 313.565002,212.579239 312.797638,210.458344 
	C308.951752,199.828445 292.798828,194.686295 281.865845,203.164719 
	C276.969635,206.961670 272.242065,207.354630 266.529572,206.598663 
	C257.603973,205.417511 248.991501,206.381241 241.603378,213.519165 
	C241.097427,214.131302 240.591461,214.743439 239.297928,215.245117 
	C238.245483,215.266647 237.193039,215.288193 235.689896,215.389130 
	C235.399597,215.530472 235.200195,215.753220 234.415054,216.438446 
M315.703461,136.850723 
	C317.452209,135.108475 320.283203,133.544800 320.609467,131.567795 
	C320.873474,129.967972 318.385254,127.543945 316.610474,126.116203 
	C315.543121,125.257568 313.503571,125.607483 311.179993,125.304100 
	C310.452087,125.301781 309.724213,125.299469 308.654327,124.617027 
	C307.853821,124.077499 307.099457,123.166962 306.245087,123.060806 
	C301.866425,122.516731 298.595947,120.498360 295.417053,117.324837 
	C291.833588,113.747375 287.101288,114.780441 282.439850,119.047478 
	C282.283997,119.107742 282.128113,119.167999 281.261475,118.991295 
	C280.176361,116.858841 279.580383,114.139580 277.891327,112.731689 
	C275.367554,110.628075 274.949005,108.351860 274.847321,105.385788 
	C274.498505,95.211784 269.292847,89.791252 259.178925,88.905426 
	C259.126373,84.456245 256.096680,82.533043 252.805176,79.935692 
	C250.264709,77.930984 250.066254,72.960518 248.813950,69.312965 
	C248.765457,69.171722 248.551636,69.094780 248.473297,68.955093 
	C247.258087,66.788055 246.288330,64.431999 244.779984,62.494816 
	C243.197327,60.462200 241.246765,58.635944 239.184555,57.080776 
	C237.353149,55.699642 234.743286,55.216148 233.177307,53.640472 
	C225.614029,46.030426 215.307114,46.395306 208.907516,54.730358 
	C205.829300,58.739521 205.382401,63.319443 206.289062,68.027550 
	C206.948181,71.450256 205.681198,73.651909 202.433975,73.212982 
	C197.242783,72.511307 192.881531,73.247665 189.501953,78.199326 
	C185.610672,71.497246 180.907974,67.567635 173.337418,70.119385 
	C164.278442,73.172836 165.829727,80.661942 166.263794,87.088646 
	C163.514618,89.611771 161.104156,91.824036 158.591522,94.130066 
	C153.126266,89.460236 147.078293,87.756554 140.071716,91.426407 
	C134.957993,94.104836 134.426575,98.331955 135.762039,103.799034 
	C133.281281,104.610115 130.437927,106.634506 128.676880,105.934822 
	C118.547302,101.910217 111.019997,106.015724 103.885567,112.579910 
	C102.301285,114.037560 100.310013,115.386353 98.275215,115.946594 
	C94.785248,116.907486 93.539085,118.916183 94.327919,122.194977 
	C95.773659,128.204208 100.094063,131.960266 105.761673,132.741196 
	C115.422127,134.072311 125.231918,134.319580 135.018494,135.760880 
	C136.235397,140.213348 139.962708,140.582520 143.610565,140.937744 
	C146.237289,141.193542 149.049896,140.689987 151.494995,141.445816 
	C158.868500,143.725174 166.033249,143.875076 173.299973,141.094116 
	C174.882675,140.488419 176.840851,140.948471 178.545929,140.563034 
	C185.014267,139.100800 191.449692,137.492966 198.529099,135.595413 
	C200.735031,132.442932 203.821930,131.997498 207.501709,131.838074 
	C218.325821,131.369110 229.127319,130.378372 240.732742,129.827682 
	C245.779343,130.574249 250.825928,131.320831 255.849167,132.697098 
	C255.841263,133.117096 255.833344,133.537094 255.413757,134.513000 
	C254.819946,139.724823 258.632660,140.399994 262.276672,140.893082 
	C265.387024,141.313980 268.737488,140.654709 271.675537,141.516815 
	C278.937744,143.647781 285.959015,143.811539 293.093567,141.156204 
	C294.705139,140.556381 296.633881,140.873810 298.365631,140.519653 
	C303.917847,139.384232 309.446136,138.131882 315.703461,136.850723 
M68.317146,337.085785 
	C67.261795,337.653198 66.206444,338.220612 64.797752,338.146271 
	C59.974266,336.282715 54.621624,337.827057 51.361137,341.372070 
	C49.118687,343.810181 46.058212,345.481598 43.705719,347.837555 
	C41.958385,349.587494 39.700420,351.865967 39.660652,353.947052 
	C39.630001,355.551025 42.483734,358.283752 44.417557,358.662292 
	C52.041595,360.154816 59.785419,361.248810 67.533798,361.792725 
	C70.848312,362.025391 74.278702,360.525421 77.664757,359.854645 
	C79.428650,359.505219 81.206001,359.215729 82.985252,358.953278 
	C88.502182,358.139526 94.038910,357.443787 99.531212,356.490509 
	C100.944328,356.245239 102.335968,355.380859 103.541214,354.524597 
	C107.400719,351.782684 106.849991,346.925415 102.445892,345.075317 
	C100.463264,344.242432 98.219460,344.011047 96.272034,343.118591 
	C91.303383,340.841644 85.181839,342.072540 81.119148,336.491547 
	C78.186462,332.462830 72.636871,333.361542 68.317146,337.085785 
M336.218445,42.012310 
	C329.464142,40.187630 323.873627,41.316742 319.736725,47.641350 
	C318.585571,49.401218 315.820801,50.020863 314.239777,51.605953 
	C312.295715,53.555027 309.646820,55.912201 309.538788,58.198624 
	C309.464294,59.775543 312.954834,62.459831 315.252380,63.026516 
	C321.164246,64.484650 327.273560,65.427734 333.352936,65.822830 
	C337.546417,66.095360 341.834808,65.210556 346.055878,64.654228 
	C349.110199,64.251694 352.127625,63.559414 355.154480,62.960827 
	C360.606415,61.882660 366.172180,61.153011 371.437653,59.481556 
	C373.290680,58.893337 375.578583,55.935501 375.524628,54.123444 
	C375.469910,52.284668 372.873901,50.415081 371.172058,48.787804 
	C370.550873,48.193798 369.278748,48.323055 368.340546,48.011166 
	C362.116547,45.942097 355.269409,45.818142 350.279266,40.214455 
	C347.128662,36.676476 342.486053,37.517155 338.353912,41.032341 
	C337.915405,41.372887 337.476929,41.713432 336.218445,42.012310 
M289.256775,337.144958 
	C287.447357,336.236298 285.382721,335.631134 283.875183,334.363464 
	C278.880493,330.163452 273.226990,327.331055 266.957794,329.841766 
	C260.330353,332.495941 254.221344,336.447174 247.900238,339.858459 
	C247.478806,340.085907 247.238312,340.702301 246.811844,340.856934 
	C245.417145,341.362488 243.984787,341.773407 242.549957,342.157349 
	C237.529526,343.500732 232.307037,344.344330 227.543808,346.306396 
	C224.217010,347.676758 222.677567,351.634949 224.482941,354.748413 
	C225.695099,356.838898 229.060028,357.851868 231.635712,358.932312 
	C234.143250,359.984161 237.238251,359.942200 239.438522,361.365143 
	C247.569412,366.623627 256.164246,365.316162 264.900818,364.070618 
	C266.981689,363.773956 269.491852,363.748169 271.281189,364.643585 
	C277.483124,367.747131 283.277557,367.630524 289.329590,364.225769 
	C291.267090,363.135773 293.883942,362.779938 296.162750,362.860321 
	C302.511292,363.084351 308.893250,363.695770 314.178467,359.178894 
	C318.589539,355.409058 318.316101,349.474396 313.337189,346.780487 
	C310.535278,345.264496 307.087341,344.964447 303.959076,344.021576 
	C302.135254,343.471893 300.285278,342.898560 298.593719,342.045135 
	C295.681274,340.575745 292.883270,338.879425 289.256775,337.144958 
z"/>
<path fill="#E8EEF2" opacity="1.000000" stroke="none" 
	d="
M0.999997,206.468536 
	C2.691862,207.581390 4.365057,209.183441 6.083635,210.735245 
	C6.917482,211.488159 7.837814,212.750626 8.716419,212.748444 
	C13.681618,212.736115 18.324915,213.173996 21.789408,217.441757 
	C22.139065,217.872482 23.966982,217.393600 24.953371,216.972549 
	C35.951321,212.277817 46.873623,213.432800 57.235786,218.387054 
	C60.966461,220.170715 63.550194,224.326767 66.707855,227.347351 
	C68.155098,228.731812 69.515831,230.585297 71.274452,231.200027 
	C78.842491,233.845428 86.319557,236.420731 92.144402,242.412109 
	C93.298622,243.599319 95.728958,243.699158 97.618584,243.989120 
	C103.051132,244.822754 108.151436,246.031006 109.652084,252.788147 
	C103.597664,258.766937 97.593185,263.329041 88.930809,259.649994 
	C88.183739,259.332703 86.768318,260.059723 85.896469,260.647430 
	C77.173004,266.527802 67.728180,267.335144 57.741989,264.940826 
	C56.557468,264.656830 55.032726,264.575470 53.996040,265.079529 
	C43.663654,270.103577 34.392368,268.458588 25.517841,260.530060 
	C24.631271,266.044373 21.806337,263.792999 19.642214,261.945953 
	C17.474262,260.095642 15.799814,257.667084 13.701550,255.253265 
	C11.750863,259.287476 11.184190,264.092560 5.501936,264.702026 
	C5.124337,262.171448 4.789643,259.928406 4.344656,256.946228 
	C2.880897,259.595612 1.940450,261.297791 1.000002,263.000000 
	C1.000000,256.978851 1.000000,250.957703 1.367034,244.476074 
	C3.581724,244.832138 5.429380,245.648666 7.804216,246.698166 
	C8.118363,238.836212 7.786458,231.842041 1.000000,227.000000 
	C1.000000,220.312363 1.000000,213.624710 0.999997,206.468536 
M55.000000,256.000000 
	C55.000000,256.000000 54.999084,255.999390 54.912590,256.689941 
	C53.473560,259.857117 55.364334,261.377655 57.893402,262.369598 
	C64.688416,265.034729 71.385117,264.554260 77.466675,260.606171 
	C81.255981,258.146179 84.534889,254.912811 83.989029,249.628540 
	C83.480583,244.706345 80.293732,241.768112 76.124252,240.186401 
	C72.526787,238.821671 68.572655,238.397125 65.112251,237.631317 
	C63.727169,234.646500 62.729744,231.097626 60.681095,228.325684 
	C52.009056,216.591812 34.886295,218.370529 25.353090,224.500076 
	C16.232082,230.364609 13.867528,243.621475 20.211248,252.282852 
	C25.433266,259.412750 32.859383,261.814972 41.300667,260.293121 
	C45.973373,259.450714 50.440731,257.469238 55.000000,256.000000 
M97.775124,257.550232 
	C98.821831,255.924210 101.109924,253.465775 100.682434,252.828278 
	C99.401100,250.917374 96.977676,248.440643 95.150345,248.556473 
	C92.734726,248.709610 90.461609,251.110825 88.127228,252.545731 
	C89.942612,254.330734 91.629417,256.285614 93.642609,257.809265 
	C94.354561,258.348114 95.862938,257.834625 97.775124,257.550232 
z"/>
<path fill="#D2E0E7" opacity="1.000000" stroke="none" 
	d="
M1.000002,263.463196 
	C1.940450,261.297791 2.880897,259.595612 4.344656,256.946228 
	C4.789643,259.928406 5.124337,262.171448 5.501936,264.702026 
	C11.184190,264.092560 11.750863,259.287476 13.701550,255.253265 
	C15.799814,257.667084 17.474262,260.095642 19.642214,261.945953 
	C21.806337,263.792999 24.631271,266.044373 25.517841,260.530060 
	C34.392368,268.458588 43.663654,270.103577 53.996040,265.079529 
	C55.032726,264.575470 56.557468,264.656830 57.741989,264.940826 
	C67.728180,267.335144 77.173004,266.527802 85.896469,260.647430 
	C86.768318,260.059723 88.183739,259.332703 88.930809,259.649994 
	C97.593185,263.329041 103.597664,258.766937 109.651306,253.151382 
	C109.595039,258.923950 106.811653,261.777679 100.889084,262.990082 
	C95.255669,264.143341 89.769470,266.130341 84.102966,266.978943 
	C76.648399,268.095306 69.071259,268.368530 61.565739,269.179443 
	C57.692158,269.597992 53.472889,269.578644 50.084648,271.182678 
	C41.679619,275.161621 33.429558,274.659119 24.889566,272.277588 
	C22.942902,271.734741 20.802143,271.552399 18.783575,271.689148 
	C16.347351,271.854156 13.913948,272.411133 11.537534,273.024109 
	C8.242519,273.873993 5.001710,274.934021 1.368845,275.952026 
	C1.000000,271.975464 1.000000,267.950897 1.000002,263.463196 
z"/>
<path fill="#FEFEFF" opacity="1.000000" stroke="none" 
	d="
M1.000000,227.467606 
	C7.786458,231.842041 8.118363,238.836212 7.804216,246.698166 
	C5.429380,245.648666 3.581724,244.832138 1.367034,244.007812 
	C1.000000,238.645065 1.000000,233.290146 1.000000,227.467606 
z"/>
<path fill="#A9E2F8" opacity="1.000000" stroke="none" 
	d="
M1.500000,1.000000 
	C1.863382,1.297078 1.666371,1.546437 1.204482,1.874039 
	C1.000000,1.666667 1.000000,1.333333 1.500000,1.000000 
z"/>
<path fill="#A9E2F8" opacity="1.000000" stroke="none" 
	d="
M415.000000,1.500000 
	C414.707733,1.857039 414.458832,1.659473 414.126648,1.203651 
	C414.333344,1.000000 414.666656,1.000000 415.000000,1.500000 
z"/>
<path fill="#FEFEFF" opacity="1.000000" stroke="none" 
	d="
M240.085510,215.355560 
	C240.591461,214.743439 241.097427,214.131302 242.134735,213.564606 
	C243.964996,212.962952 245.199677,212.063568 246.574234,211.713654 
	C251.782913,210.387726 256.986938,208.852509 262.292358,208.168427 
	C265.549622,207.748459 266.857056,209.647934 264.669281,212.879639 
	C263.627930,214.417908 263.077576,216.288574 262.304810,218.008667 
	C262.678131,218.355591 263.051453,218.702515 263.424744,219.049454 
	C267.873169,210.516479 275.031372,209.752319 284.155396,212.152237 
	C282.389709,210.133835 281.501221,209.118179 280.581085,208.066345 
	C284.921204,203.641342 290.036041,202.913742 295.482117,202.981522 
	C303.811096,203.085205 306.506287,205.097672 309.117523,213.021759 
	C310.103607,216.014114 312.002686,217.929993 315.614563,218.120285 
	C318.174133,218.255157 320.907776,219.028625 323.149597,220.266846 
	C326.043152,221.865036 326.654297,224.147049 322.802429,226.093536 
	C322.337341,226.446243 322.134338,226.704391 321.994629,227.004211 
	C322.001190,227.001205 322.006836,226.988098 321.799164,227.116974 
	C321.331024,227.452225 321.129913,227.705734 320.994568,228.003815 
	C321.000977,228.001266 321.007507,227.989395 320.665039,227.989105 
	C319.865326,227.988647 319.408081,227.988480 318.643860,228.030396 
	C317.558594,228.688736 316.780273,229.304962 315.549377,229.944794 
	C310.789978,230.769333 305.992218,230.651764 302.309174,232.620010 
	C298.330658,234.746155 295.393890,238.821716 291.711853,242.213898 
	C290.943787,243.584503 290.466522,244.788177 289.608246,245.978607 
	C286.785248,245.015091 283.534424,244.689438 282.162476,242.912842 
	C281.104126,241.542374 282.403992,238.350769 282.711304,235.438553 
	C276.777191,239.345886 271.716187,243.862869 263.982239,242.587372 
	C264.734253,239.960037 265.293854,238.004898 265.853455,236.049759 
	C265.184692,235.468353 264.515961,234.886932 263.847198,234.305527 
	C263.003693,235.937714 262.554382,238.072952 261.239410,239.103561 
	C257.894409,241.725113 254.415863,244.555161 250.508469,245.965927 
	C247.097382,247.197495 243.023987,246.794693 239.253494,246.700790 
	C238.212921,246.674881 237.209167,245.171310 235.954300,244.156296 
	C237.828705,243.111893 238.969147,242.476456 240.109573,241.841034 
	C229.995255,242.588333 221.276611,241.529800 218.171356,228.626602 
	C216.826675,231.582062 215.070633,233.548401 215.393158,235.075851 
	C216.510574,240.368042 213.288284,240.058029 209.957565,240.020111 
	C207.962662,239.997406 205.967163,240.028992 203.831299,239.752090 
	C203.442429,238.669632 203.194183,237.871246 203.130829,236.757141 
	C209.119217,234.440353 211.951889,229.344513 215.655121,225.017258 
	C219.897247,220.060303 225.452133,221.812805 229.271484,223.155304 
	C232.668121,221.368500 235.120438,220.312805 237.291977,218.842438 
	C238.470032,218.044754 239.169922,216.540878 240.085510,215.355560 
M284.539246,213.506638 
	C284.539246,213.506638 284.483704,213.531448 284.539246,213.506638 
M266.461212,233.495087 
	C266.461212,233.495087 266.515106,233.470718 266.461212,233.495087 
M242.534744,240.506866 
	C242.534744,240.506866 242.481400,240.529556 242.534744,240.506866 
M283.507080,233.464508 
	C283.507080,233.464508 283.530487,233.519150 283.507080,233.464508 
z"/>
<path fill="#FAFCFD" opacity="1.000000" stroke="none" 
	d="
M316.001953,229.921204 
	C316.780273,229.304962 317.558594,228.688736 318.814148,228.225861 
	C319.863434,228.249298 320.435486,228.119354 321.007507,227.989410 
	C321.007507,227.989395 321.000977,228.001266 321.203186,227.876007 
	C321.665894,227.543823 321.866364,227.289612 322.006836,226.988098 
	C322.006836,226.988098 322.001190,227.001205 322.205505,226.871796 
	C322.673065,226.528168 322.872345,226.265488 323.007690,225.954300 
	C326.654297,224.147049 326.043152,221.865036 323.149597,220.266846 
	C320.907776,219.028625 318.174133,218.255157 315.614563,218.120285 
	C312.002686,217.929993 310.103607,216.014114 309.117523,213.021759 
	C306.506287,205.097672 303.811096,203.085205 295.482117,202.981522 
	C290.036041,202.913742 284.921204,203.641342 280.581085,208.066345 
	C281.501221,209.118179 282.389709,210.133835 284.155396,212.152237 
	C275.031372,209.752319 267.873169,210.516479 263.424744,219.049454 
	C263.051453,218.702515 262.678131,218.355591 262.304810,218.008667 
	C263.077576,216.288574 263.627930,214.417908 264.669281,212.879639 
	C266.857056,209.647934 265.549622,207.748459 262.292358,208.168427 
	C256.986938,208.852509 251.782913,210.387726 246.574234,211.713654 
	C245.199677,212.063568 243.964996,212.962952 242.426682,213.474808 
	C248.991501,206.381241 257.603973,205.417511 266.529572,206.598663 
	C272.242065,207.354630 276.969635,206.961670 281.865845,203.164719 
	C292.798828,194.686295 308.951752,199.828445 312.797638,210.458344 
	C313.565002,212.579239 317.137848,213.921463 319.661377,215.099396 
	C321.870483,216.130585 324.864838,215.813171 326.739075,217.164200 
	C331.948334,220.919205 337.902069,220.870071 343.708252,220.970642 
	C346.562164,221.020050 349.879211,219.901382 352.238831,218.245590 
	C360.113892,212.719528 370.135956,214.850662 374.960266,223.140274 
	C376.019440,224.960236 378.489594,226.523880 380.598999,227.052612 
	C385.281921,228.226456 389.529999,229.675308 391.881866,234.864288 
	C390.974121,237.126648 389.908844,238.658798 389.433136,240.356171 
	C388.490234,243.720520 386.475830,245.277679 382.601776,245.013962 
	C378.870148,244.922882 375.540985,244.632874 372.248016,244.862274 
	C371.111115,244.941483 370.064270,246.313248 368.696655,247.128448 
	C367.955566,247.453323 367.494080,247.744324 366.646545,248.084595 
	C361.212128,249.866104 356.156799,251.692474 351.480042,247.193542 
	C351.971039,245.742447 352.411774,244.439896 353.017303,242.650345 
	C343.971649,248.899765 342.593079,249.140717 337.014954,245.512405 
	C335.998199,246.953934 334.966400,248.416794 333.653320,250.024780 
	C332.580322,250.427567 331.788574,250.685226 330.715973,250.737518 
	C326.228241,250.004639 320.777344,253.894333 318.666046,248.536652 
	C314.209076,246.440048 310.585266,244.735367 306.732361,242.999451 
	C306.503235,242.968216 306.044769,242.907440 306.036865,242.556763 
	C305.845398,241.089066 305.661835,239.972061 305.478271,238.855072 
	C305.044647,238.837662 304.611023,238.820251 304.177368,238.802841 
	C303.672668,240.994263 303.167969,243.185684 302.581726,245.731232 
	C300.427246,245.854858 298.173004,245.984222 295.596283,246.016373 
	C294.809265,244.970474 294.344727,244.021790 294.083862,242.773987 
	C296.204163,241.080017 298.628235,240.050934 299.945007,238.223816 
	C304.441010,231.985199 306.878510,230.983429 314.700226,233.457779 
	C315.129578,232.291321 315.565765,231.106277 316.001953,229.921204 
M339.493561,243.546600 
	C339.493561,243.546600 339.466339,243.486359 339.493561,243.546600 
z"/>
<path fill="#E7EEF3" opacity="1.000000" stroke="none" 
	d="
M239.937668,129.591904 
	C229.127319,130.378372 218.325821,131.369110 207.501709,131.838074 
	C203.821930,131.997498 200.735031,132.442932 197.866486,135.778412 
	C196.132355,135.663589 195.060837,135.365784 194.157837,134.746536 
	C197.025055,129.529709 195.947250,127.714928 190.464096,126.913528 
	C186.430649,126.324005 180.549988,126.417694 178.887497,123.934242 
	C174.845963,117.896912 170.104553,117.103645 163.354279,118.752731 
	C168.868011,114.546135 174.684982,115.238487 178.263260,119.971878 
	C180.516663,122.952721 189.538971,125.353073 193.400665,123.997498 
	C192.626846,122.053757 191.848984,120.110588 191.071121,118.167412 
	C197.418976,123.925873 204.256760,122.192017 212.002319,120.256149 
	C209.731888,122.074364 208.385361,123.152710 205.708252,125.296616 
	C209.679810,126.041481 212.272568,126.589081 214.886017,127.007164 
	C225.636551,128.726974 231.826767,122.672676 235.790985,113.761322 
	C236.690369,116.722450 236.771057,120.316460 238.231812,121.011948 
	C240.384399,122.036858 243.723999,121.549767 246.168884,120.649681 
	C247.925430,120.003006 249.366608,117.810524 250.390701,115.993294 
	C253.413040,110.630234 251.582733,105.864479 247.615311,101.578522 
	C253.455399,99.963196 257.171967,95.165955 255.620941,90.916115 
	C254.934402,89.034950 252.723236,87.710190 251.204193,86.132851 
	C250.163040,87.541985 249.121887,88.951126 248.695877,89.527702 
	C247.338135,87.120811 245.516571,83.891678 243.845276,80.928940 
	C244.889709,80.008568 247.926834,78.232559 247.686508,77.374847 
	C246.970932,74.820900 245.014023,72.596031 243.446320,70.308228 
	C242.761719,69.309135 241.809708,68.497681 241.040176,67.551384 
	C239.882706,66.128059 238.841690,63.559219 237.636337,63.490456 
	C236.114609,63.403652 234.477463,65.340218 232.609055,66.592293 
	C231.828934,65.892403 230.631073,64.817726 229.296844,63.620716 
	C233.949615,59.782566 230.642578,56.814545 228.501724,54.164158 
	C225.279297,50.174747 218.108078,49.675632 213.899399,52.721241 
	C208.479416,56.643406 206.817780,63.396065 209.685806,69.143616 
	C211.543549,69.432755 213.272278,69.701813 215.000992,69.970879 
	C208.234619,73.016533 205.841721,78.233994 205.644913,85.435844 
	C202.523041,81.928207 207.227203,73.466888 199.043793,75.506081 
	C194.997665,76.514290 191.736465,80.672485 188.374481,83.213219 
	C187.194946,81.176376 185.751785,77.997498 183.686462,75.293907 
	C181.175400,72.006836 177.297729,72.115829 174.164963,73.799957 
	C170.383011,75.833054 168.024704,79.383453 168.044174,84.001244 
	C168.064713,88.873787 172.619339,85.891747 173.636398,86.736084 
	C170.586792,88.840202 166.975494,90.551529 164.471115,93.279167 
	C161.963593,96.010208 160.561752,99.756439 158.729965,102.961983 
	C156.844376,95.650658 155.447235,93.573181 151.189941,93.128250 
	C146.847061,92.674370 141.998962,92.394142 139.380936,96.530014 
	C138.064270,98.610016 138.799026,101.988586 138.639374,104.298485 
	C136.082565,108.238312 133.481003,112.247078 131.162704,115.819389 
	C130.764725,110.470573 128.386765,106.912704 123.091698,107.336113 
	C118.428566,107.708984 113.769150,110.050797 109.462143,112.224602 
	C106.930305,113.502472 105.295631,116.445091 102.894829,118.118828 
	C97.843582,121.640335 97.855576,124.780495 103.369972,127.677620 
	C111.795067,132.103973 120.884720,132.813049 130.092255,131.681641 
	C137.015228,130.830948 143.463776,129.253281 147.845840,122.426849 
	C149.438889,119.945183 154.432831,119.646645 157.875092,118.352043 
	C158.048050,118.811928 158.221008,119.271812 158.393967,119.731697 
	C149.826935,120.834564 146.071716,124.803261 144.652206,134.087036 
	C144.491760,134.088974 144.172363,134.057922 144.067993,133.712326 
	C141.015930,130.149170 140.173523,130.378479 137.760956,134.851105 
	C136.819077,134.145996 136.134766,133.574890 135.197128,132.792389 
	C135.101486,133.769989 135.040222,134.396072 134.978973,135.022171 
	C125.231918,134.319580 115.422127,134.072311 105.761673,132.741196 
	C100.094063,131.960266 95.773659,128.204208 94.327919,122.194977 
	C93.539085,118.916183 94.785248,116.907486 98.275215,115.946594 
	C100.310013,115.386353 102.301285,114.037560 103.885567,112.579910 
	C111.019997,106.015724 118.547302,101.910217 128.676880,105.934822 
	C130.437927,106.634506 133.281281,104.610115 135.762039,103.799034 
	C134.426575,98.331955 134.957993,94.104836 140.071716,91.426407 
	C147.078293,87.756554 153.126266,89.460236 158.591522,94.130066 
	C161.104156,91.824036 163.514618,89.611771 166.263794,87.088646 
	C165.829727,80.661942 164.278442,73.172836 173.337418,70.119385 
	C180.907974,67.567635 185.610672,71.497246 189.501953,78.199326 
	C192.881531,73.247665 197.242783,72.511307 202.433975,73.212982 
	C205.681198,73.651909 206.948181,71.450256 206.289062,68.027550 
	C205.382401,63.319443 205.829300,58.739521 208.907516,54.730358 
	C215.307114,46.395306 225.614029,46.030426 233.177307,53.640472 
	C234.743286,55.216148 237.353149,55.699642 239.184555,57.080776 
	C241.246765,58.635944 243.197327,60.462200 244.779984,62.494816 
	C246.288330,64.431999 247.258087,66.788055 248.473297,68.955093 
	C248.551636,69.094780 248.765457,69.171722 248.813950,69.312965 
	C250.066254,72.960518 250.264709,77.930984 252.805176,79.935692 
	C256.096680,82.533043 259.126373,84.456245 259.178925,88.905426 
	C269.292847,89.791252 274.498505,95.211784 274.847321,105.385788 
	C274.949005,108.351860 275.367554,110.628075 277.891327,112.731689 
	C279.580383,114.139580 280.176361,116.858841 281.301331,119.329247 
	C278.890686,119.780258 276.440125,119.893311 274.216675,119.773247 
	C275.109039,118.926811 275.774292,118.313492 276.439545,117.700172 
	C275.714142,117.159508 275.044067,116.261581 274.253876,116.139130 
	C270.542023,115.563919 268.126099,117.067932 267.106628,121.102333 
	C269.646637,120.694290 271.827148,120.343994 273.793457,120.240402 
	C270.328705,124.128914 267.078064,127.770721 263.573181,131.697418 
	C261.236938,130.573700 258.801910,130.969803 257.746643,134.864319 
	C256.921265,134.482071 256.373352,134.219574 255.825439,133.957092 
	C255.833344,133.537094 255.841263,133.117096 256.177063,132.205032 
	C257.883148,129.206528 263.159058,130.359406 262.570435,125.064629 
	C255.870255,128.958893 249.259186,129.965866 242.242401,128.365204 
	C241.600830,128.218857 240.711792,129.157242 239.937668,129.591904 
M260.538666,115.247093 
	C267.840179,116.948410 273.447449,111.257111 271.447510,103.455490 
	C270.672760,100.433289 268.407593,97.022934 265.813843,95.429817 
	C262.477936,93.380890 259.746826,96.540718 257.437500,99.030731 
	C253.057877,103.752975 254.001968,110.052277 260.538666,115.247093 
z"/>
<path fill="#D2E0E7" opacity="1.000000" stroke="none" 
	d="
M293.880157,243.073090 
	C294.344727,244.021790 294.809265,244.970474 295.710205,246.350433 
	C300.864502,250.468491 303.401123,249.475616 306.044769,242.907440 
	C306.044769,242.907440 306.503235,242.968216 306.750977,243.361633 
	C310.381104,252.391251 321.875366,255.833969 330.996826,250.942902 
	C331.788574,250.685226 332.580322,250.427567 334.014832,250.150085 
	C338.447876,250.722931 342.238129,251.315582 346.963226,252.054398 
	C348.403625,254.856949 348.657837,255.096024 353.981781,254.972275 
	C359.440277,254.845383 364.429718,253.630798 367.032593,248.035339 
	C367.494080,247.744324 367.955566,247.453323 368.715881,247.508530 
	C370.399200,248.895126 371.877625,250.916122 373.150818,250.794174 
	C377.151978,250.410950 381.544495,249.996582 383.018463,245.018890 
	C386.475830,245.277679 388.490234,243.720520 389.433136,240.356171 
	C389.908844,238.658798 390.974121,237.126648 391.961487,235.199982 
	C396.558838,238.968857 394.661224,247.062668 388.274017,248.887329 
	C380.844727,251.009689 374.536133,255.678268 365.896820,255.652084 
	C360.493927,255.635712 354.604645,259.983215 348.336395,258.941437 
	C339.736908,257.512177 331.339539,257.115692 322.582062,258.611847 
	C318.562408,259.298584 313.557343,256.909851 309.632965,254.759262 
	C305.044281,252.244614 300.468170,251.847061 296.464600,254.220795 
	C285.689728,260.609283 274.753082,259.236633 263.807007,255.709152 
	C259.721985,254.392731 256.384155,254.951828 252.371536,255.813583 
	C241.881714,258.066376 231.324158,258.909973 222.269287,250.873505 
	C220.825211,249.591858 218.354111,249.302994 216.290115,248.918335 
	C211.948013,248.109116 207.379089,248.092606 203.240494,246.727951 
	C198.534180,245.176086 197.271301,240.831253 199.914581,236.281754 
	C201.325470,236.498108 202.135712,236.785492 202.945953,237.072876 
	C203.194183,237.871246 203.442429,238.669632 203.904007,240.111542 
	C207.561493,244.658661 212.994415,245.273453 218.474442,242.288788 
	C218.474442,240.569000 218.474442,238.773926 218.474442,236.397949 
	C227.654938,248.980347 237.937241,252.970505 250.091751,248.766708 
	C253.966370,247.426620 257.384735,245.656693 261.531616,248.458435 
	C262.923889,249.399109 265.854462,248.868500 267.727234,248.121323 
	C271.388214,246.660690 274.799530,244.574280 279.436005,242.163696 
	C277.205994,245.079102 275.679108,247.075302 274.206268,249.000809 
	C278.525146,254.097946 285.923798,253.678513 292.251251,250.357635 
	C291.498260,248.904297 290.743744,247.448074 289.989258,245.991837 
	C290.466522,244.788177 290.943787,243.584503 291.891602,242.424347 
	C292.868134,242.669601 293.374146,242.871353 293.880157,243.073090 
z"/>
<path fill="#D4E3EA" opacity="1.000000" stroke="none" 
	d="
M289.647003,337.211639 
	C292.883270,338.879425 295.681274,340.575745 298.593719,342.045135 
	C300.285278,342.898560 302.135254,343.471893 303.959076,344.021576 
	C307.087341,344.964447 310.535278,345.264496 313.337189,346.780487 
	C318.316101,349.474396 318.589539,355.409058 314.178467,359.178894 
	C308.893250,363.695770 302.511292,363.084351 296.162750,362.860321 
	C293.883942,362.779938 291.267090,363.135773 289.329590,364.225769 
	C283.277557,367.630524 277.483124,367.747131 271.281189,364.643585 
	C269.491852,363.748169 266.981689,363.773956 264.900818,364.070618 
	C256.164246,365.316162 247.569412,366.623627 239.438522,361.365143 
	C237.238251,359.942200 234.143250,359.984161 231.635712,358.932312 
	C229.060028,357.851868 225.695099,356.838898 224.482941,354.748413 
	C222.677567,351.634949 224.217010,347.676758 227.543808,346.306396 
	C232.307037,344.344330 237.529526,343.500732 242.549957,342.157349 
	C243.984787,341.773407 245.417145,341.362488 246.811844,340.856934 
	C247.238312,340.702301 247.478806,340.085907 247.900238,339.858459 
	C254.221344,336.447174 260.330353,332.495941 266.957794,329.841766 
	C273.226990,327.331055 278.880493,330.163452 283.875183,334.363464 
	C285.382721,335.631134 287.447357,336.236298 289.647003,337.211639 
M300.911835,359.943665 
	C303.937927,359.295074 307.096252,358.993622 309.954773,357.905029 
	C313.123016,356.698486 314.181000,353.391144 312.503174,350.920410 
	C311.219574,349.030121 308.114136,347.862213 305.642700,347.462067 
	C303.784210,347.161133 301.645905,348.588074 299.530457,349.279053 
	C297.152893,342.915741 292.709015,339.971619 286.124298,339.807495 
	C284.903320,339.777069 283.443756,338.327789 282.570465,337.173187 
	C277.924622,331.030914 266.627502,329.988647 261.152588,335.465240 
	C260.276917,336.341187 260.136810,337.952423 259.406128,339.886963 
	C252.559341,340.038422 247.131226,344.018250 244.322937,352.570709 
	C243.761292,345.027802 240.270737,342.864807 234.457535,345.905304 
	C232.670639,346.839874 231.555191,349.058136 230.132278,350.688568 
	C232.109283,351.784454 234.003510,353.089142 236.087463,353.915222 
	C238.020065,354.681305 241.113983,354.241333 242.046600,355.528229 
	C248.336487,364.207275 256.977295,361.641052 264.682953,359.793518 
	C269.211823,358.707642 273.002106,356.726868 277.672058,359.096344 
	C283.451752,362.028961 288.573975,357.930389 294.339020,357.557983 
	C296.246765,358.343872 298.154510,359.129761 300.911835,359.943665 
z"/>
<path fill="#FDFEFE" opacity="1.000000" stroke="none" 
	d="
M337.038452,42.053978 
	C337.476929,41.713432 337.915405,41.372887 339.033325,40.974930 
	C343.338379,39.963356 347.733765,38.815159 349.766602,42.521225 
	C353.157501,48.703102 358.904572,47.914062 364.163818,49.051735 
	C365.894104,49.426037 367.895447,49.877220 369.081512,51.014343 
	C370.021179,51.915207 370.544250,54.168671 370.076569,55.359905 
	C369.613525,56.539326 367.533051,58.028637 366.412720,57.845791 
	C360.778198,56.926189 355.113892,63.087223 349.518646,57.781219 
	C349.310303,57.583645 348.148682,58.584976 347.370789,58.762806 
	C342.419037,59.894760 337.481750,61.143684 332.476196,61.968399 
	C329.023712,62.537231 326.130585,61.524395 325.967865,57.401360 
	C321.664825,57.783871 317.658234,58.140030 312.708588,58.580017 
	C313.480042,56.722980 313.734253,54.579273 314.679565,54.211388 
	C315.948792,53.717422 317.752045,54.595562 319.494934,54.915699 
	C319.560455,54.772919 319.773254,54.346027 319.955505,53.906460 
	C324.323425,43.372814 324.322754,43.393730 335.355164,43.424149 
	C335.914978,43.425694 336.477295,42.531250 337.038452,42.053978 
z"/>
<path fill="#FDFEFE" opacity="1.000000" stroke="none" 
	d="
M65.151093,338.788055 
	C66.206444,338.220612 67.261795,337.653198 69.017128,336.958557 
	C73.697670,335.616486 78.780022,334.644257 80.617577,338.585358 
	C83.687302,345.169067 89.344131,343.696564 94.232536,345.017883 
	C96.065643,345.513397 98.202408,345.943268 99.495361,347.155426 
	C102.055779,349.555939 101.456215,352.245819 98.168297,353.303986 
	C94.229172,354.571686 90.074715,355.217255 85.975754,355.908356 
	C84.953438,356.080688 83.451881,355.732025 82.748070,355.037567 
	C80.618561,352.936371 78.952698,353.846802 76.582161,354.814789 
	C69.435585,357.732910 62.037098,361.349854 55.122166,354.053345 
	C54.691475,353.598907 53.618542,353.610504 52.853661,353.640594 
	C49.860268,353.758331 46.870590,353.970612 43.877029,354.147888 
	C43.988991,349.748047 44.391815,349.518890 49.647560,350.832123 
	C52.508549,343.876099 55.620346,337.178314 65.151093,338.788055 
z"/>
<path fill="#FEFEFF" opacity="1.000000" stroke="none" 
	d="
M258.024078,134.984100 
	C258.801910,130.969803 261.236938,130.573700 263.573181,131.697418 
	C267.078064,127.770721 270.328705,124.128914 273.789429,120.243622 
	C273.999573,120.000137 273.989594,120.006378 273.989594,120.006378 
	C276.440125,119.893311 278.890686,119.780258 281.656738,119.447723 
	C282.128113,119.167999 282.283997,119.107742 283.064880,118.965179 
	C291.963226,116.231972 291.568848,116.633469 298.360840,123.355659 
	C300.475311,125.448380 305.372833,124.729111 308.996307,125.297150 
	C309.724213,125.299469 310.452087,125.301781 311.672363,125.638992 
	C315.549194,128.447998 317.471619,131.217316 313.585602,135.074646 
	C311.778961,135.070587 310.389252,135.067169 308.854004,134.936096 
	C308.442657,135.176956 308.176819,135.545471 307.515808,135.990845 
	C302.944611,136.067688 298.768524,136.067688 292.791962,136.067688 
	C289.634674,139.264099 283.508728,139.159195 277.312775,139.105255 
	C273.896088,139.075531 271.316895,138.537506 271.915009,134.984100 
	C267.044525,134.984100 262.534302,134.984100 258.024078,134.984100 
z"/>
<path fill="#D9E8EF" opacity="1.000000" stroke="none" 
	d="
M64.974426,338.467163 
	C55.620346,337.178314 52.508549,343.876099 49.647560,350.832123 
	C44.391815,349.518890 43.988991,349.748047 43.877029,354.147888 
	C46.870590,353.970612 49.860268,353.758331 52.853661,353.640594 
	C53.618542,353.610504 54.691475,353.598907 55.122166,354.053345 
	C62.037098,361.349854 69.435585,357.732910 76.582161,354.814789 
	C78.952698,353.846802 80.618561,352.936371 82.748070,355.037567 
	C83.451881,355.732025 84.953438,356.080688 85.975754,355.908356 
	C90.074715,355.217255 94.229172,354.571686 98.168297,353.303986 
	C101.456215,352.245819 102.055779,349.555939 99.495361,347.155426 
	C98.202408,345.943268 96.065643,345.513397 94.232536,345.017883 
	C89.344131,343.696564 83.687302,345.169067 80.617577,338.585358 
	C78.780022,334.644257 73.697670,335.616486 69.309509,336.857849 
	C72.636871,333.361542 78.186462,332.462830 81.119148,336.491547 
	C85.181839,342.072540 91.303383,340.841644 96.272034,343.118591 
	C98.219460,344.011047 100.463264,344.242432 102.445892,345.075317 
	C106.849991,346.925415 107.400719,351.782684 103.541214,354.524597 
	C102.335968,355.380859 100.944328,356.245239 99.531212,356.490509 
	C94.038910,357.443787 88.502182,358.139526 82.985252,358.953278 
	C81.206001,359.215729 79.428650,359.505219 77.664757,359.854645 
	C74.278702,360.525421 70.848312,362.025391 67.533798,361.792725 
	C59.785419,361.248810 52.041595,360.154816 44.417557,358.662292 
	C42.483734,358.283752 39.630001,355.551025 39.660652,353.947052 
	C39.700420,351.865967 41.958385,349.587494 43.705719,347.837555 
	C46.058212,345.481598 49.118687,343.810181 51.361137,341.372070 
	C54.621624,337.827057 59.974266,336.282715 64.974426,338.467163 
z"/>
<path fill="#D9E8EF" opacity="1.000000" stroke="none" 
	d="
M336.628448,42.033146 
	C336.477295,42.531250 335.914978,43.425694 335.355164,43.424149 
	C324.322754,43.393730 324.323425,43.372814 319.955505,53.906460 
	C319.773254,54.346027 319.560455,54.772919 319.494934,54.915699 
	C317.752045,54.595562 315.948792,53.717422 314.679565,54.211388 
	C313.734253,54.579273 313.480042,56.722980 312.708588,58.580017 
	C317.658234,58.140030 321.664825,57.783871 325.967865,57.401360 
	C326.130585,61.524395 329.023712,62.537231 332.476196,61.968399 
	C337.481750,61.143684 342.419037,59.894760 347.370789,58.762806 
	C348.148682,58.584976 349.310303,57.583645 349.518646,57.781219 
	C355.113892,63.087223 360.778198,56.926189 366.412720,57.845791 
	C367.533051,58.028637 369.613525,56.539326 370.076569,55.359905 
	C370.544250,54.168671 370.021179,51.915207 369.081512,51.014343 
	C367.895447,49.877220 365.894104,49.426037 364.163818,49.051735 
	C358.904572,47.914062 353.157501,48.703102 349.766602,42.521225 
	C347.733765,38.815159 343.338379,39.963356 339.305908,40.899162 
	C342.486053,37.517155 347.128662,36.676476 350.279266,40.214455 
	C355.269409,45.818142 362.116547,45.942097 368.340546,48.011166 
	C369.278748,48.323055 370.550873,48.193798 371.172058,48.787804 
	C372.873901,50.415081 375.469910,52.284668 375.524628,54.123444 
	C375.578583,55.935501 373.290680,58.893337 371.437653,59.481556 
	C366.172180,61.153011 360.606415,61.882660 355.154480,62.960827 
	C352.127625,63.559414 349.110199,64.251694 346.055878,64.654228 
	C341.834808,65.210556 337.546417,66.095360 333.352936,65.822830 
	C327.273560,65.427734 321.164246,64.484650 315.252380,63.026516 
	C312.954834,62.459831 309.464294,59.775543 309.538788,58.198624 
	C309.646820,55.912201 312.295715,53.555027 314.239777,51.605953 
	C315.820801,50.020863 318.585571,49.401218 319.736725,47.641350 
	C323.873627,41.316742 329.464142,40.187630 336.628448,42.033146 
z"/>
<path fill="#D4E3EA" opacity="1.000000" stroke="none" 
	d="
M144.172363,134.057922 
	C144.172363,134.057922 144.491760,134.088974 144.953674,134.312103 
	C147.494690,134.535233 149.573776,134.535233 151.652878,134.535233 
	C151.403412,134.855682 151.153961,135.176147 150.904510,135.496597 
	C152.646912,136.668762 154.282547,138.609467 156.151718,138.869156 
	C161.788651,139.652252 167.336914,139.011459 172.398956,135.899292 
	C173.474976,135.237747 175.596909,134.589951 176.195633,135.117538 
	C179.687042,138.194153 183.282364,136.988007 187.247620,135.936081 
	C188.024689,135.629807 188.510468,135.343369 189.412598,135.061050 
	C191.215744,135.066101 192.602539,135.067047 193.989334,135.067978 
	C195.060837,135.365784 196.132355,135.663589 197.550629,135.950485 
	C191.449692,137.492966 185.014267,139.100800 178.545929,140.563034 
	C176.840851,140.948471 174.882675,140.488419 173.299973,141.094116 
	C166.033249,143.875076 158.868500,143.725174 151.494995,141.445816 
	C149.049896,140.689987 146.237289,141.193542 143.610565,140.937744 
	C139.962708,140.582520 136.235397,140.213348 134.998734,135.391525 
	C135.040222,134.396072 135.101486,133.769989 135.197128,132.792389 
	C136.134766,133.574890 136.819077,134.145996 138.051666,134.993134 
	C140.457397,134.865417 142.314880,134.461670 144.172363,134.057922 
z"/>
<path fill="#D4E3EA" opacity="1.000000" stroke="none" 
	d="
M257.746643,134.864319 
	C262.534302,134.984100 267.044525,134.984100 271.915009,134.984100 
	C271.316895,138.537506 273.896088,139.075531 277.312775,139.105255 
	C283.508728,139.159195 289.634674,139.264099 292.791962,136.067688 
	C298.768524,136.067688 302.944611,136.067688 307.737183,135.904709 
	C308.630615,135.574448 308.845886,135.348465 308.999512,135.063751 
	C310.389252,135.067169 311.778961,135.070587 313.699707,135.309677 
	C314.481720,136.005112 314.732697,136.464874 314.983673,136.924637 
	C309.446136,138.131882 303.917847,139.384232 298.365631,140.519653 
	C296.633881,140.873810 294.705139,140.556381 293.093567,141.156204 
	C285.959015,143.811539 278.937744,143.647781 271.675537,141.516815 
	C268.737488,140.654709 265.387024,141.313980 262.276672,140.893082 
	C258.632660,140.399994 254.819946,139.724823 255.619598,134.235046 
	C256.373352,134.219574 256.921265,134.482071 257.746643,134.864319 
z"/>
<path fill="#FAFCFD" opacity="1.000000" stroke="none" 
	d="
M203.130829,236.757141 
	C202.135712,236.785492 201.325470,236.498108 200.214966,236.078461 
	C200.606888,235.024033 201.128204,233.547729 202.020004,233.272675 
	C206.632782,231.849976 209.118179,228.172241 211.847504,224.682358 
	C215.799713,219.628738 221.400055,218.536301 227.374329,218.096664 
	C229.749054,217.921906 232.069748,217.013062 234.952179,216.159149 
	C235.745956,215.735016 235.963058,215.544968 236.140594,215.309738 
	C237.193039,215.288193 238.245483,215.266647 239.691711,215.300339 
	C239.169922,216.540878 238.470032,218.044754 237.291977,218.842438 
	C235.120438,220.312805 232.668121,221.368500 229.271484,223.155304 
	C225.452133,221.812805 219.897247,220.060303 215.655121,225.017258 
	C211.951889,229.344513 209.119217,234.440353 203.130829,236.757141 
z"/>
<path fill="#E7EEF3" opacity="1.000000" stroke="none" 
	d="
M308.825317,124.957085 
	C305.372833,124.729111 300.475311,125.448380 298.360840,123.355659 
	C291.568848,116.633469 291.963226,116.231972 283.311371,118.919495 
	C287.101288,114.780441 291.833588,113.747375 295.417053,117.324837 
	C298.595947,120.498360 301.866425,122.516731 306.245087,123.060806 
	C307.099457,123.166962 307.853821,124.077499 308.825317,124.957085 
z"/>
<path fill="#D4E3EA" opacity="1.000000" stroke="none" 
	d="
M240.335205,129.709793 
	C240.711792,129.157242 241.600830,128.218857 242.242401,128.365204 
	C249.259186,129.965866 255.870255,128.958893 262.570435,125.064629 
	C263.159058,130.359406 257.883148,129.206528 256.188751,131.890182 
	C250.825928,131.320831 245.779343,130.574249 240.335205,129.709793 
z"/>
<path fill="#E7EEF3" opacity="1.000000" stroke="none" 
	d="
M315.343567,136.887680 
	C314.732697,136.464874 314.481720,136.005112 314.116638,135.310333 
	C317.471619,131.217316 315.549194,128.447998 312.032837,125.694084 
	C313.503571,125.607483 315.543121,125.257568 316.610474,126.116203 
	C318.385254,127.543945 320.873474,129.967972 320.609467,131.567795 
	C320.283203,133.544800 317.452209,135.108475 315.343567,136.887680 
z"/>
<path fill="#D2E0E7" opacity="1.000000" stroke="none" 
	d="
M235.915253,215.349426 
	C235.963058,215.544968 235.745956,215.735016 235.290497,215.968628 
	C235.200195,215.753220 235.399597,215.530472 235.915253,215.349426 
z"/>
<path fill="#FEFFFF" opacity="1.000000" stroke="none" 
	d="
M55.000652,256.001221 
	C50.440731,257.469238 45.973373,259.450714 41.300667,260.293121 
	C32.859383,261.814972 25.433266,259.412750 20.211248,252.282852 
	C13.867528,243.621475 16.232082,230.364609 25.353090,224.500076 
	C34.886295,218.370529 52.009056,216.591812 60.681095,228.325684 
	C62.729744,231.097626 63.727169,234.646500 65.112251,237.631317 
	C68.572655,238.397125 72.526787,238.821671 76.124252,240.186401 
	C80.293732,241.768112 83.480583,244.706345 83.989029,249.628540 
	C84.534889,254.912811 81.255981,258.146179 77.466675,260.606171 
	C71.385117,264.554260 64.688416,265.034729 57.893402,262.369598 
	C55.364334,261.377655 53.473560,259.857117 55.057148,256.300903 
	C55.201706,255.911850 55.218601,255.645935 55.218601,255.645935 
	C55.218601,255.645935 55.000652,256.001221 55.000652,256.001221 
z"/>
<path fill="#FEFEFF" opacity="1.000000" stroke="none" 
	d="
M97.391418,257.675903 
	C95.862938,257.834625 94.354561,258.348114 93.642609,257.809265 
	C91.629417,256.285614 89.942612,254.330734 88.127228,252.545746 
	C90.461609,251.110825 92.734726,248.709610 95.150345,248.556473 
	C96.977676,248.440643 99.401100,250.917374 100.682434,252.828278 
	C101.109924,253.465775 98.821831,255.924210 97.391418,257.675903 
z"/>
<path fill="#E8EEF2" opacity="1.000000" stroke="none" 
	d="
M289.608246,245.978607 
	C290.743744,247.448074 291.498260,248.904297 292.251251,250.357635 
	C285.923798,253.678513 278.525146,254.097946 274.206268,249.000809 
	C275.679108,247.075302 277.205994,245.079102 279.436005,242.163696 
	C274.799530,244.574280 271.388214,246.660690 267.727234,248.121323 
	C265.854462,248.868500 262.923889,249.399109 261.531616,248.458435 
	C257.384735,245.656693 253.966370,247.426620 250.091751,248.766708 
	C237.937241,252.970505 227.654938,248.980347 218.474442,236.397949 
	C218.474442,238.773926 218.474442,240.569000 218.474442,242.288788 
	C212.994415,245.273453 207.561493,244.658661 204.044647,240.395630 
	C205.967163,240.028992 207.962662,239.997406 209.957565,240.020111 
	C213.288284,240.058029 216.510574,240.368042 215.393158,235.075851 
	C215.070633,233.548401 216.826675,231.582062 218.171356,228.626602 
	C221.276611,241.529800 229.995255,242.588333 240.109573,241.841034 
	C238.969147,242.476456 237.828705,243.111893 235.954300,244.156296 
	C237.209167,245.171310 238.212921,246.674881 239.253494,246.700790 
	C243.023987,246.794693 247.097382,247.197495 250.508469,245.965927 
	C254.415863,244.555161 257.894409,241.725113 261.239410,239.103561 
	C262.554382,238.072952 263.003693,235.937714 263.847198,234.305527 
	C264.515961,234.886932 265.184692,235.468353 265.853455,236.049759 
	C265.293854,238.004898 264.734253,239.960037 263.982239,242.587372 
	C271.716187,243.862869 276.777191,239.345886 282.711304,235.438553 
	C282.403992,238.350769 281.104126,241.542374 282.162476,242.912842 
	C283.534424,244.689438 286.785248,245.015091 289.608246,245.978607 
z"/>
<path fill="#E8EEF2" opacity="1.000000" stroke="none" 
	d="
M294.083862,242.773972 
	C293.374146,242.871353 292.868134,242.669601 292.182404,242.257401 
	C295.393890,238.821716 298.330658,234.746155 302.309174,232.620010 
	C305.992218,230.651764 310.789978,230.769333 315.549408,229.944794 
	C315.565765,231.106277 315.129578,232.291321 314.700226,233.457779 
	C306.878510,230.983429 304.441010,231.985199 299.945007,238.223816 
	C298.628235,240.050934 296.204163,241.080017 294.083862,242.773972 
z"/>
<path fill="#E8EEF2" opacity="1.000000" stroke="none" 
	d="
M320.665039,227.989105 
	C320.435486,228.119354 319.863434,228.249298 319.121124,228.183777 
	C319.408081,227.988480 319.865326,227.988647 320.665039,227.989105 
z"/>
<path fill="#FAFCFD" opacity="1.000000" stroke="none" 
	d="
M284.511475,213.519043 
	C284.483704,213.531448 284.539246,213.506638 284.511475,213.519043 
z"/>
<path fill="#E8EEF2" opacity="1.000000" stroke="none" 
	d="
M322.802429,226.093536 
	C322.872345,226.265488 322.673065,226.528168 322.198975,226.874786 
	C322.134338,226.704391 322.337341,226.446243 322.802429,226.093536 
z"/>
<path fill="#E8EEF2" opacity="1.000000" stroke="none" 
	d="
M321.799164,227.116974 
	C321.866364,227.289612 321.665894,227.543823 321.196777,227.878540 
	C321.129913,227.705734 321.331024,227.452225 321.799164,227.116974 
z"/>
<path fill="#E8EEF2" opacity="1.000000" stroke="none" 
	d="
M266.488159,233.482910 
	C266.515106,233.470718 266.461212,233.495087 266.488159,233.482910 
z"/>
<path fill="#E8EEF2" opacity="1.000000" stroke="none" 
	d="
M242.508072,240.518219 
	C242.481400,240.529556 242.534744,240.506866 242.508072,240.518219 
z"/>
<path fill="#E8EEF2" opacity="1.000000" stroke="none" 
	d="
M283.518799,233.491821 
	C283.530487,233.519150 283.507080,233.464508 283.518799,233.491821 
z"/>
<path fill="#E8EEF2" opacity="1.000000" stroke="none" 
	d="
M366.646545,248.084595 
	C364.429718,253.630798 359.440277,254.845383 353.981781,254.972275 
	C348.657837,255.096024 348.403625,254.856949 346.963226,252.054398 
	C342.238129,251.315582 338.447876,250.722931 334.296082,250.004959 
	C334.966400,248.416794 335.998199,246.953934 337.014954,245.512405 
	C342.593079,249.140717 343.971649,248.899765 353.017303,242.650345 
	C352.411774,244.439896 351.971039,245.742447 351.480042,247.193542 
	C356.156799,251.692474 361.212128,249.866104 366.646545,248.084595 
z"/>
<path fill="#E8EEF2" opacity="1.000000" stroke="none" 
	d="
M330.715973,250.737534 
	C321.875366,255.833969 310.381104,252.391251 306.980103,243.392868 
	C310.585266,244.735367 314.209076,246.440048 318.666046,248.536652 
	C320.777344,253.894333 326.228241,250.004639 330.715973,250.737534 
z"/>
<path fill="#E8EEF2" opacity="1.000000" stroke="none" 
	d="
M382.601776,245.013962 
	C381.544495,249.996582 377.151978,250.410950 373.150818,250.794174 
	C371.877625,250.916122 370.399200,248.895126 368.995483,247.474670 
	C370.064270,246.313248 371.111115,244.941483 372.248016,244.862274 
	C375.540985,244.632874 378.870148,244.922882 382.601776,245.013962 
z"/>
<path fill="#E8EEF2" opacity="1.000000" stroke="none" 
	d="
M306.036865,242.556763 
	C303.401123,249.475616 300.864502,250.468491 296.032715,246.447632 
	C298.173004,245.984222 300.427246,245.854858 302.581726,245.731232 
	C303.167969,243.185684 303.672668,240.994263 304.177368,238.802841 
	C304.611023,238.820251 305.044647,238.837662 305.478271,238.855072 
	C305.661835,239.972061 305.845398,241.089066 306.036865,242.556763 
z"/>
<path fill="#E8EEF2" opacity="1.000000" stroke="none" 
	d="
M339.479950,243.516479 
	C339.466339,243.486359 339.493561,243.546600 339.479950,243.516479 
z"/>
<path fill="#FEFFFF" opacity="1.000000" stroke="none" 
	d="
M186.956299,135.955917 
	C183.282364,136.988007 179.687042,138.194153 176.195633,135.117538 
	C175.596909,134.589951 173.474976,135.237747 172.398956,135.899292 
	C167.336914,139.011459 161.788651,139.652252 156.151718,138.869156 
	C154.282547,138.609467 152.646912,136.668762 150.904510,135.496597 
	C151.153961,135.176147 151.403412,134.855682 151.652878,134.535233 
	C149.573776,134.535233 147.494690,134.535233 145.114120,134.310150 
	C146.071716,124.803261 149.826935,120.834564 158.393967,119.731697 
	C158.221008,119.271812 158.048050,118.811928 157.875092,118.352043 
	C154.432831,119.646645 149.438889,119.945183 147.845840,122.426849 
	C143.463776,129.253281 137.015228,130.830948 130.092255,131.681641 
	C120.884720,132.813049 111.795067,132.103973 103.369972,127.677620 
	C97.855576,124.780495 97.843582,121.640335 102.894829,118.118828 
	C105.295631,116.445091 106.930305,113.502472 109.462143,112.224602 
	C113.769150,110.050797 118.428566,107.708984 123.091698,107.336113 
	C128.386765,106.912704 130.764725,110.470573 131.162704,115.819389 
	C133.481003,112.247078 136.082565,108.238312 138.639374,104.298485 
	C138.799026,101.988586 138.064270,98.610016 139.380936,96.530014 
	C141.998962,92.394142 146.847061,92.674370 151.189941,93.128250 
	C155.447235,93.573181 156.844376,95.650658 158.729965,102.961983 
	C160.561752,99.756439 161.963593,96.010208 164.471115,93.279167 
	C166.975494,90.551529 170.586792,88.840202 173.636398,86.736084 
	C172.619339,85.891747 168.064713,88.873787 168.044174,84.001244 
	C168.024704,79.383453 170.383011,75.833054 174.164963,73.799957 
	C177.297729,72.115829 181.175400,72.006836 183.686462,75.293907 
	C185.751785,77.997498 187.194946,81.176376 188.374481,83.213219 
	C191.736465,80.672485 194.997665,76.514290 199.043793,75.506081 
	C207.227203,73.466888 202.523041,81.928207 205.644913,85.435844 
	C205.841721,78.233994 208.234619,73.016533 215.000992,69.970879 
	C213.272278,69.701813 211.543549,69.432755 209.685806,69.143616 
	C206.817780,63.396065 208.479416,56.643406 213.899399,52.721241 
	C218.108078,49.675632 225.279297,50.174747 228.501724,54.164158 
	C230.642578,56.814545 233.949615,59.782566 229.296844,63.620716 
	C230.631073,64.817726 231.828934,65.892403 232.609055,66.592293 
	C234.477463,65.340218 236.114609,63.403652 237.636337,63.490456 
	C238.841690,63.559219 239.882706,66.128059 241.040176,67.551384 
	C241.809708,68.497681 242.761719,69.309135 243.446320,70.308228 
	C245.014023,72.596031 246.970932,74.820900 247.686508,77.374847 
	C247.926834,78.232559 244.889709,80.008568 243.845276,80.928940 
	C245.516571,83.891678 247.338135,87.120811 248.695877,89.527702 
	C249.121887,88.951126 250.163040,87.541985 251.204193,86.132851 
	C252.723236,87.710190 254.934402,89.034950 255.620941,90.916115 
	C257.171967,95.165955 253.455399,99.963196 247.615311,101.578522 
	C251.582733,105.864479 253.413040,110.630234 250.390701,115.993294 
	C249.366608,117.810524 247.925430,120.003006 246.168884,120.649681 
	C243.723999,121.549767 240.384399,122.036858 238.231812,121.011948 
	C236.771057,120.316460 236.690369,116.722450 235.790985,113.761322 
	C231.826767,122.672676 225.636551,128.726974 214.886017,127.007164 
	C212.272568,126.589081 209.679810,126.041481 205.708252,125.296616 
	C208.385361,123.152710 209.731888,122.074364 212.002319,120.256149 
	C204.256760,122.192017 197.418976,123.925873 191.071121,118.167412 
	C191.848984,120.110588 192.626846,122.053757 193.400665,123.997498 
	C189.538971,125.353073 180.516663,122.952721 178.263260,119.971878 
	C174.684982,115.238487 168.868011,114.546135 163.354279,118.752731 
	C170.104553,117.103645 174.845963,117.896912 178.887497,123.934242 
	C180.549988,126.417694 186.430649,126.324005 190.464096,126.913528 
	C195.947250,127.714928 197.025055,129.529709 194.157837,134.746536 
	C192.602539,135.067047 191.215744,135.066101 189.238281,134.859024 
	C188.083832,135.087234 187.520065,135.521576 186.956299,135.955917 
M173.074814,98.528740 
	C171.481262,99.544586 169.887711,100.560432 168.017929,101.752365 
	C171.633331,102.276749 175.066681,101.810654 176.803406,103.309906 
	C178.397476,104.686012 178.162552,108.180809 178.720261,110.682877 
	C183.091370,100.730209 192.873428,104.083206 200.272400,101.763123 
	C196.846481,98.058662 195.244476,97.637535 190.575226,98.884644 
	C188.056519,99.557365 185.292252,100.725632 182.960449,100.211494 
	C181.259567,99.836456 180.084229,97.077927 179.366318,96.214172 
	C177.470367,96.916214 175.608490,97.605637 173.074814,98.528740 
M221.865005,85.956230 
	C221.589706,86.719910 221.024063,87.508308 221.086655,88.243202 
	C221.465851,92.695442 219.191849,94.226425 215.108246,94.025009 
	C214.392838,93.989723 213.661835,94.270515 212.429825,94.499992 
	C217.517883,100.260124 221.799545,97.021286 226.027176,93.534897 
	C226.273209,96.633354 226.447586,98.829353 226.571503,100.389877 
	C228.794891,96.879921 230.992691,93.410370 233.088058,90.102539 
	C232.750473,90.168533 231.929291,90.221550 231.186630,90.490982 
	C224.301849,92.988770 224.276657,92.975174 223.612976,86.181442 
	C223.589676,85.942955 222.855865,85.773888 221.865005,85.956230 
M209.241241,93.520485 
	C209.094070,93.527695 208.946915,93.534904 208.799744,93.542122 
	C208.897644,93.587593 208.995560,93.633064 209.241241,93.520485 
M165.460129,105.488403 
	C165.460129,105.488403 165.516510,105.462021 165.460129,105.488403 
M226.537994,82.506645 
	C226.537994,82.506645 226.478668,82.533195 226.537994,82.506645 
M106.450211,118.491196 
	C106.450211,118.491196 106.512405,118.462219 106.450211,118.491196 
z"/>
<path fill="#FEFFFF" opacity="1.000000" stroke="none" 
	d="
M260.194519,115.074715 
	C254.001968,110.052277 253.057877,103.752975 257.437500,99.030731 
	C259.746826,96.540718 262.477936,93.380890 265.813843,95.429817 
	C268.407593,97.022934 270.672760,100.433289 271.447510,103.455490 
	C273.447449,111.257111 267.840179,116.948410 260.194519,115.074715 
z"/>
<path fill="#FDFEFE" opacity="1.000000" stroke="none" 
	d="
M274.003601,119.996918 
	C271.827148,120.343994 269.646637,120.694290 267.106628,121.102333 
	C268.126099,117.067932 270.542023,115.563919 274.253876,116.139130 
	C275.044067,116.261581 275.714142,117.159508 276.439545,117.700172 
	C275.774292,118.313492 275.109039,118.926811 274.216675,119.773254 
	C273.989594,120.006378 273.999573,120.000137 274.003601,119.996918 
z"/>
<path fill="#FEFFFF" opacity="1.000000" stroke="none" 
	d="
M144.067993,133.712311 
	C142.314880,134.461670 140.457397,134.865417 138.309204,135.127136 
	C140.173523,130.378479 141.015930,130.149170 144.067993,133.712311 
z"/>
<path fill="#FAFCFD" opacity="1.000000" stroke="none" 
	d="
M293.991608,356.953918 
	C288.573975,357.930389 283.451752,362.028961 277.672058,359.096344 
	C273.002106,356.726868 269.211823,358.707642 264.682953,359.793518 
	C256.977295,361.641052 248.336487,364.207275 242.046600,355.528229 
	C241.113983,354.241333 238.020065,354.681305 236.087463,353.915222 
	C234.003510,353.089142 232.109283,351.784454 230.132294,350.688568 
	C231.555191,349.058136 232.670639,346.839874 234.457535,345.905304 
	C240.270737,342.864807 243.761292,345.027802 244.322937,352.570709 
	C247.131226,344.018250 252.559341,340.038422 259.406128,339.886963 
	C260.136810,337.952423 260.276917,336.341187 261.152588,335.465240 
	C266.627502,329.988647 277.924622,331.030914 282.570465,337.173187 
	C283.443756,338.327789 284.903320,339.777069 286.124298,339.807495 
	C292.709015,339.971619 297.152893,342.915741 299.530457,349.279053 
	C301.645905,348.588074 303.784210,347.161133 305.642700,347.462067 
	C308.114136,347.862213 311.219574,349.030121 312.503174,350.920410 
	C314.181000,353.391144 313.123016,356.698486 309.954773,357.905029 
	C307.096252,358.993622 303.937927,359.295074 300.406860,359.589355 
	C298.329376,357.444580 297.938354,352.592957 293.991608,356.953918 
z"/>
<path fill="#E8EEF2" opacity="1.000000" stroke="none" 
	d="
M294.165314,357.255951 
	C297.938354,352.592957 298.329376,357.444580 299.982056,359.575378 
	C298.154510,359.129761 296.246765,358.343872 294.165314,357.255951 
z"/>
<path fill="#E7EEF3" opacity="1.000000" stroke="none" 
	d="
M308.854004,134.936096 
	C308.845886,135.348465 308.630615,135.574448 308.132324,135.827850 
	C308.176819,135.545471 308.442657,135.176956 308.854004,134.936096 
z"/>
<path fill="#E7EEF3" opacity="1.000000" stroke="none" 
	d="
M187.247620,135.936081 
	C187.520065,135.521576 188.083832,135.087234 188.821930,134.854919 
	C188.510468,135.343369 188.024689,135.629807 187.247620,135.936081 
z"/>
<path fill="#E8EEF2" opacity="1.000000" stroke="none" 
	d="
M55.000328,256.000610 
	C55.000652,256.001221 55.218601,255.645935 55.218601,255.645935 
	C55.218601,255.645935 55.201706,255.911850 55.100395,255.955627 
	C54.999084,255.999390 55.000000,256.000000 55.000328,256.000610 
z"/>
<path fill="#E8EEF2" opacity="1.000000" stroke="none" 
	d="
M173.410721,98.411896 
	C175.608490,97.605637 177.470367,96.916214 179.366318,96.214172 
	C180.084229,97.077927 181.259567,99.836456 182.960449,100.211494 
	C185.292252,100.725632 188.056519,99.557365 190.575226,98.884644 
	C195.244476,97.637535 196.846481,98.058662 200.272400,101.763123 
	C192.873428,104.083206 183.091370,100.730209 178.720261,110.682877 
	C178.162552,108.180809 178.397476,104.686012 176.803406,103.309906 
	C175.066681,101.810654 171.633331,102.276749 168.017929,101.752365 
	C169.887711,100.560432 171.481262,99.544586 173.410721,98.411896 
z"/>
<path fill="#E8EEF2" opacity="1.000000" stroke="none" 
	d="
M222.159119,85.764343 
	C222.855865,85.773888 223.589676,85.942955 223.612976,86.181442 
	C224.276657,92.975174 224.301849,92.988770 231.186630,90.490982 
	C231.929291,90.221550 232.750473,90.168533 233.088058,90.102539 
	C230.992691,93.410370 228.794891,96.879921 226.571503,100.389877 
	C226.447586,98.829353 226.273209,96.633354 226.027176,93.534897 
	C221.799545,97.021286 217.517883,100.260124 212.429825,94.499992 
	C213.661835,94.270515 214.392838,93.989723 215.108246,94.025009 
	C219.191849,94.226425 221.465851,92.695442 221.086655,88.243202 
	C221.024063,87.508308 221.589706,86.719910 222.159119,85.764343 
z"/>
<path fill="#E8EEF2" opacity="1.000000" stroke="none" 
	d="
M209.167358,93.599510 
	C208.995560,93.633064 208.897644,93.587593 208.799744,93.542114 
	C208.946915,93.534904 209.094070,93.527695 209.167358,93.599510 
z"/>
<path fill="#E8EEF2" opacity="1.000000" stroke="none" 
	d="
M165.488312,105.475212 
	C165.516510,105.462021 165.460129,105.488403 165.488312,105.475212 
z"/>
<path fill="#E8EEF2" opacity="1.000000" stroke="none" 
	d="
M226.508331,82.519920 
	C226.478668,82.533195 226.537994,82.506645 226.508331,82.519920 
z"/>
<path fill="#E7EEF3" opacity="1.000000" stroke="none" 
	d="
M106.481308,118.476707 
	C106.512405,118.462219 106.450211,118.491196 106.481308,118.476707 
z"/>
</svg>